#Comment line ignore any data following # character 
#Hierarchical Translation and Rotation (.htr) file 
[Header]	
#Header keywords are followed by a single value 
FileType HTR		#Single word string
DataType HTRS		#Translation followed by rotation and scale data
FileVersion 1		#integer
NumSegments 84		#integer
NumFrames 2		#integer
DataFrameRate 30		#integer, data frame rate in this file
EulerRotationOrder ZYX
CalibrationUnits mm
RotationUnits Degrees
GlobalAxisofGravity Y
BoneLengthAxis Y
ScaleFactor 1.00
[SegmentNames&Hierarchy]
#CHILD	PARENT
MASTER GLOBAL
root MASTER
chest root
L_mid_tent01 root
R_mid_tent01 root
spine01 root
Bip01_Neck chest
L_humerus chest
R_humerus chest
weapon_bone chest
Bip01_Head Bip01_Neck
eye_left_bone Bip01_Head
eye_right_bone Bip01_Head
L_forearm L_humerus
L_front_hand L_forearm
L_weapon_bone L_forearm
L_front_hand01_01 L_front_hand
L_front_hand02_01 L_front_hand
L_front_hand03_01 L_front_hand
L_front_hand01_02 L_front_hand01_01
L_front_hand02_02 L_front_hand02_01
L_front_hand03_02 L_front_hand03_01
R_forearm R_humerus
R_front_hand R_forearm
R_weapon_bone R_forearm
R_front_hand01_01 R_front_hand
R_front_hand02_01 R_front_hand
R_front_hand03_01 R_front_hand
R_front_hand01_02 R_front_hand01_01
R_front_hand02_02 R_front_hand02_01
R_front_hand03_02 R_front_hand03_01
null_rope01_connect L_mid_tent01
Rope1_Seg01 null_rope01_connect
Rope1_Seg02 Rope1_Seg01
Rope1_Seg03 Rope1_Seg02
Rope1_Seg04 Rope1_Seg03
Rope1_Seg05 Rope1_Seg04
Rope1_Seg06 Rope1_Seg05
Rope1_Seg07 Rope1_Seg06
Rope1_Seg09 Rope1_Seg07
L_mid_hand01 Rope1_Seg09
L_mid_hand02 Rope1_Seg09
L_mid_hand03 Rope1_Seg09
null_rope02_connect R_mid_tent01
Rope2_Seg01 null_rope02_connect
Rope2_Seg02 Rope2_Seg01
Rope2_Seg03 Rope2_Seg02
Rope2_Seg04 Rope2_Seg03
Rope2_Seg05 Rope2_Seg04
Rope2_Seg06 Rope2_Seg05
Rope2_Seg07 Rope2_Seg06
Rope2_Seg09 Rope2_Seg07
R_mid_hand01 Rope2_Seg09
R_mid_hand02 Rope2_Seg09
R_mid_hand03 Rope2_Seg09
spine02 spine01
spine03 spine02
pelvis spine03
null_rope03_connect pelvis
null_rope04_connect pelvis
Rope3_Seg01 null_rope03_connect
Rope3_Seg02 Rope3_Seg01
Rope3_Seg03 Rope3_Seg02
Rope3_Seg04 Rope3_Seg03
Rope3_Seg05 Rope3_Seg04
Rope3_Seg06 Rope3_Seg05
Rope3_Seg07 Rope3_Seg06
Rope3_Seg08 Rope3_Seg07
Rope3_Seg09 Rope3_Seg08
R_rear_hand01 Rope3_Seg09
R_rear_hand02 Rope3_Seg09
R_rear_hand03 Rope3_Seg09
Rope4_Seg01 null_rope04_connect
Rope4_Seg02 Rope4_Seg01
Rope4_Seg03 Rope4_Seg02
Rope4_Seg04 Rope4_Seg03
Rope4_Seg05 Rope4_Seg04
Rope4_Seg06 Rope4_Seg05
Rope4_Seg07 Rope4_Seg06
Rope4_Seg08 Rope4_Seg07
Rope4_Seg09 Rope4_Seg08
L_rear_hand01 Rope4_Seg09
L_rear_hand02 Rope4_Seg09
L_rear_hand03 Rope4_Seg09
[BasePosition]
#SegmentName Tx, Ty, Tz, Rx, Ry, Rz, BoneLength
MASTER 0.000000 0.000000 0.000000 -90.000000 0.000000 0.000000 10.000000 
root 0.000000 0.000000 0.000000 0.000000 0.000000 0.000000 10.000000 
chest 0.000000 0.000000 0.000000 0.000000 0.000000 0.000000 10.000000 
L_mid_tent01 0.000000 0.000000 0.000000 0.000000 0.000000 0.000000 10.000000 
R_mid_tent01 0.000000 0.000000 0.000000 0.000000 0.000000 0.000000 10.000000 
spine01 0.000000 0.000000 0.000000 0.000000 0.000000 0.000000 10.000000 
Bip01_Neck 0.000000 0.000000 0.000000 0.000000 0.000000 0.000000 10.000000 
L_humerus 0.000000 0.000000 0.000000 0.000000 0.000000 0.000000 10.000000 
R_humerus 0.000000 0.000000 0.000000 0.000000 0.000000 0.000000 10.000000 
weapon_bone 0.000000 0.000000 0.000000 0.000000 0.000000 0.000000 10.000000 
Bip01_Head 0.000000 0.000000 0.000000 0.000000 0.000000 0.000000 10.000000 
eye_left_bone 0.000000 0.000000 0.000000 0.000000 0.000000 0.000000 10.000000 
eye_right_bone 0.000000 0.000000 0.000000 0.000000 0.000000 0.000000 10.000000 
L_forearm 0.000000 0.000000 0.000000 0.000000 0.000000 0.000000 10.000000 
L_front_hand 0.000000 0.000000 0.000000 0.000000 0.000000 0.000000 10.000000 
L_weapon_bone 0.000000 0.000000 0.000000 0.000000 0.000000 0.000000 10.000000 
L_front_hand01_01 0.000000 0.000000 0.000000 0.000000 0.000000 0.000000 10.000000 
L_front_hand02_01 0.000000 0.000000 0.000000 0.000000 0.000000 0.000000 10.000000 
L_front_hand03_01 0.000000 0.000000 0.000000 0.000000 0.000000 0.000000 10.000000 
L_front_hand01_02 0.000000 0.000000 0.000000 0.000000 0.000000 0.000000 10.000000 
L_front_hand02_02 0.000000 0.000000 0.000000 0.000000 0.000000 0.000000 10.000000 
L_front_hand03_02 0.000000 0.000000 0.000000 0.000000 0.000000 0.000000 10.000000 
R_forearm 0.000000 0.000000 0.000000 0.000000 0.000000 0.000000 10.000000 
R_front_hand 0.000000 0.000000 0.000000 0.000000 0.000000 0.000000 10.000000 
R_weapon_bone 0.000000 0.000000 0.000000 0.000000 0.000000 0.000000 10.000000 
R_front_hand01_01 0.000000 0.000000 0.000000 0.000000 0.000000 0.000000 10.000000 
R_front_hand02_01 0.000000 0.000000 0.000000 0.000000 0.000000 0.000000 10.000000 
R_front_hand03_01 0.000000 0.000000 0.000000 0.000000 0.000000 0.000000 10.000000 
R_front_hand01_02 0.000000 0.000000 0.000000 0.000000 0.000000 0.000000 10.000000 
R_front_hand02_02 0.000000 0.000000 0.000000 0.000000 0.000000 0.000000 10.000000 
R_front_hand03_02 0.000000 0.000000 0.000000 0.000000 0.000000 0.000000 10.000000 
null_rope01_connect 0.000000 0.000000 0.000000 0.000000 0.000000 0.000000 10.000000 
Rope1_Seg01 0.000000 0.000000 0.000000 0.000000 0.000000 0.000000 10.000000 
Rope1_Seg02 0.000000 0.000000 0.000000 0.000000 0.000000 0.000000 10.000000 
Rope1_Seg03 0.000000 0.000000 0.000000 0.000000 0.000000 0.000000 10.000000 
Rope1_Seg04 0.000000 0.000000 0.000000 0.000000 0.000000 0.000000 10.000000 
Rope1_Seg05 0.000000 0.000000 0.000000 0.000000 0.000000 0.000000 10.000000 
Rope1_Seg06 0.000000 0.000000 0.000000 0.000000 0.000000 0.000000 10.000000 
Rope1_Seg07 0.000000 0.000000 0.000000 0.000000 0.000000 0.000000 10.000000 
Rope1_Seg09 0.000000 0.000000 0.000000 0.000000 0.000000 0.000000 10.000000 
L_mid_hand01 0.000000 0.000000 0.000000 0.000000 0.000000 0.000000 10.000000 
L_mid_hand02 0.000000 0.000000 0.000000 0.000000 0.000000 0.000000 10.000000 
L_mid_hand03 0.000000 0.000000 0.000000 0.000000 0.000000 0.000000 10.000000 
null_rope02_connect 0.000000 0.000000 0.000000 0.000000 0.000000 0.000000 10.000000 
Rope2_Seg01 0.000000 0.000000 0.000000 0.000000 0.000000 0.000000 10.000000 
Rope2_Seg02 0.000000 0.000000 0.000000 0.000000 0.000000 0.000000 10.000000 
Rope2_Seg03 0.000000 0.000000 0.000000 0.000000 0.000000 0.000000 10.000000 
Rope2_Seg04 0.000000 0.000000 0.000000 0.000000 0.000000 0.000000 10.000000 
Rope2_Seg05 0.000000 0.000000 0.000000 0.000000 0.000000 0.000000 10.000000 
Rope2_Seg06 0.000000 0.000000 0.000000 0.000000 0.000000 0.000000 10.000000 
Rope2_Seg07 0.000000 0.000000 0.000000 0.000000 0.000000 0.000000 10.000000 
Rope2_Seg09 0.000000 0.000000 0.000000 0.000000 0.000000 0.000000 10.000000 
R_mid_hand01 0.000000 0.000000 0.000000 0.000000 0.000000 0.000000 10.000000 
R_mid_hand02 0.000000 0.000000 0.000000 0.000000 0.000000 0.000000 10.000000 
R_mid_hand03 0.000000 0.000000 0.000000 0.000000 0.000000 0.000000 10.000000 
spine02 0.000000 0.000000 0.000000 0.000000 0.000000 0.000000 10.000000 
spine03 0.000000 0.000000 0.000000 0.000000 0.000000 0.000000 10.000000 
pelvis 0.000000 0.000000 0.000000 0.000000 0.000000 0.000000 10.000000 
null_rope03_connect 0.000000 0.000000 0.000000 0.000000 0.000000 0.000000 10.000000 
null_rope04_connect 0.000000 0.000000 0.000000 0.000000 0.000000 0.000000 10.000000 
Rope3_Seg01 0.000000 0.000000 0.000000 0.000000 0.000000 0.000000 10.000000 
Rope3_Seg02 0.000000 0.000000 0.000000 0.000000 0.000000 0.000000 10.000000 
Rope3_Seg03 0.000000 0.000000 0.000000 0.000000 0.000000 0.000000 10.000000 
Rope3_Seg04 0.000000 0.000000 0.000000 0.000000 0.000000 0.000000 10.000000 
Rope3_Seg05 0.000000 0.000000 0.000000 0.000000 0.000000 0.000000 10.000000 
Rope3_Seg06 0.000000 0.000000 0.000000 0.000000 0.000000 0.000000 10.000000 
Rope3_Seg07 0.000000 0.000000 0.000000 0.000000 0.000000 0.000000 10.000000 
Rope3_Seg08 0.000000 0.000000 0.000000 0.000000 0.000000 0.000000 10.000000 
Rope3_Seg09 0.000000 0.000000 0.000000 0.000000 0.000000 0.000000 10.000000 
R_rear_hand01 0.000000 0.000000 0.000000 0.000000 0.000000 0.000000 10.000000 
R_rear_hand02 0.000000 0.000000 0.000000 0.000000 0.000000 0.000000 10.000000 
R_rear_hand03 0.000000 0.000000 0.000000 0.000000 0.000000 0.000000 10.000000 
Rope4_Seg01 0.000000 0.000000 0.000000 0.000000 0.000000 0.000000 10.000000 
Rope4_Seg02 0.000000 0.000000 0.000000 0.000000 0.000000 0.000000 10.000000 
Rope4_Seg03 0.000000 0.000000 0.000000 0.000000 0.000000 0.000000 10.000000 
Rope4_Seg04 0.000000 0.000000 0.000000 0.000000 0.000000 0.000000 10.000000 
Rope4_Seg05 0.000000 0.000000 0.000000 0.000000 0.000000 0.000000 10.000000 
Rope4_Seg06 0.000000 0.000000 0.000000 0.000000 0.000000 0.000000 10.000000 
Rope4_Seg07 0.000000 0.000000 0.000000 0.000000 0.000000 0.000000 10.000000 
Rope4_Seg08 0.000000 0.000000 0.000000 0.000000 0.000000 0.000000 10.000000 
Rope4_Seg09 0.000000 0.000000 0.000000 0.000000 0.000000 0.000000 10.000000 
L_rear_hand01 0.000000 0.000000 0.000000 0.000000 0.000000 0.000000 10.000000 
L_rear_hand02 0.000000 0.000000 0.000000 0.000000 0.000000 0.000000 10.000000 
L_rear_hand03 0.000000 0.000000 0.000000 0.000000 0.000000 0.000000 10.000000 
#Beginning of Data. Separated by tabs
#Fr	Tx	Ty	Tz	Rx	Ry	Rz	SF
[MASTER]
9 240.522064 2187.875977 2564.595703 0.001660 0.001660 0.001660 3379.615723
10 309.692139 2486.550293 2896.608887 0.001660 0.001660 0.001660 3830.037109
[root]
9 88.039268 1.047311 932.160461 -30.428646 -5.653703 -108.760742 936.309265
10 63.597507 -26.095886 516.133118 -17.200747 -0.620109 -111.301537 520.690918
[chest]
9 -84.512650 -34.090519 0.000000 22.628685 -10.868419 -178.377609 91.129311
10 -84.512650 -34.090519 0.000000 29.466160 -8.300266 178.365707 91.129311
[L_mid_tent01]
9 27.299023 22.179258 -249.918686 -1.070522 20.927828 72.403717 252.381668
10 27.299017 22.179258 -249.918686 -0.186072 20.440317 77.484596 252.381668
[R_mid_tent01]
9 23.228794 24.509907 226.238495 170.465225 -22.634779 66.293800 228.744751
10 23.228794 24.509907 226.238495 169.929733 -21.686951 67.888161 228.744751
[spine01]
9 -0.361383 -0.195265 0.000000 0.001884 0.001400 16.797955 0.410763
10 -0.361383 -0.195265 0.000000 0.001875 0.001412 16.058170 0.410763
[Bip01_Neck]
9 165.484543 71.581718 0.000119 176.643677 -1.657967 43.431911 180.302734
10 165.484543 71.581718 0.000119 176.643677 -1.657967 43.431911 180.302734
[L_humerus]
9 -13.983130 -135.272980 -120.471481 24.922678 80.549286 115.178299 181.680161
10 -13.983130 -135.272980 -120.471481 42.877518 82.667915 133.238266 181.680161
[R_humerus]
9 -13.983309 -135.273102 125.287651 -174.973434 -75.839775 -89.957306 184.909012
10 -13.983309 -135.273102 125.287651 -172.860901 -70.906921 -92.087547 184.909012
[weapon_bone]
9 235.964890 -300.705902 0.000000 0.000000 -89.951546 -128.212341 382.234833
10 235.964890 -300.705902 0.000000 0.000000 -89.951546 -128.212341 382.234833
[Bip01_Head]
9 213.637695 185.177002 18.730766 17.151222 -1.457613 -43.900330 283.341553
10 213.551620 185.416565 15.639037 17.636396 -0.270438 -43.894348 283.245789
[eye_left_bone]
9 -24.626970 125.451866 -64.772606 0.000000 -90.000000 -99.840431 143.318359
10 -24.626970 125.451866 -64.772606 0.000000 -90.000000 -99.840431 143.318359
[eye_right_bone]
9 -24.626970 125.451866 64.327362 0.000000 -89.965736 80.156380 143.117676
10 -24.626970 125.451866 64.327362 0.000000 -89.965736 80.156380 143.117676
[L_forearm]
9 322.776093 0.000000 -0.000119 0.000419 -0.002310 -110.561150 322.776093
10 322.776093 0.000000 -0.000119 0.000421 -0.002309 -110.653336 322.776093
[L_front_hand]
9 241.149185 -0.042021 -3.300071 -178.667953 -1.835447 -27.422350 241.171753
10 241.149185 -0.042021 -3.300071 -178.667953 -1.835447 -27.422350 241.171753
[L_weapon_bone]
9 156.183838 0.000000 0.000000 0.000014 0.000007 0.000001 156.183838
10 156.183838 0.000000 0.000000 0.000014 0.000007 0.000001 156.183838
[L_front_hand01_01]
9 86.095154 20.947098 -0.655860 -0.289102 -0.524108 66.611084 88.609184
10 86.095154 20.947098 -0.655860 -0.279531 -0.529728 65.431473 88.609184
[L_front_hand02_01]
9 86.935165 -11.437475 24.513514 142.580521 -55.269005 -47.395390 91.046425
10 86.935165 -11.437475 24.513514 141.258118 -54.537659 -45.777599 91.046425
[L_front_hand03_01]
9 86.637497 -14.123976 -20.424902 -142.879868 53.494274 -49.391991 90.126129
10 86.637497 -14.123976 -20.424902 -141.638611 52.767319 -47.837204 90.126129
[L_front_hand01_02]
9 71.020905 -0.000179 0.000030 0.000315 -0.002326 -105.433174 71.020905
10 71.020905 -0.000179 0.000030 0.000315 -0.002326 -105.412971 71.020905
[L_front_hand02_02]
9 71.020927 -0.000119 0.000060 0.000315 -0.002326 -105.433174 71.020927
10 71.020927 -0.000119 0.000060 0.000315 -0.002326 -105.412971 71.020927
[L_front_hand03_02]
9 71.020905 -0.000060 0.000060 0.000315 -0.002326 -105.433174 71.020905
10 71.020905 -0.000060 0.000060 0.000315 -0.002326 -105.412971 71.020905
[R_forearm]
9 322.776428 -0.000060 0.000030 0.201443 0.067170 -109.205414 322.776428
10 322.776428 -0.000060 0.000030 0.201378 0.067365 -109.316681 322.776428
[R_front_hand]
9 238.847015 -0.006795 2.210259 -2.635298 -10.645462 -26.312506 238.857239
10 238.847015 -0.006795 2.210259 -2.635298 -10.645461 -26.312506 238.857239
[R_weapon_bone]
9 155.664093 0.002503 -0.000030 0.003487 0.001180 -90.988930 155.664078
10 155.664093 0.002503 -0.000030 0.003487 0.001180 -90.988930 155.664078
[R_front_hand01_01]
9 87.624611 14.231146 22.918642 -141.947067 -54.924732 46.726727 91.683487
10 87.624611 14.231146 22.918642 -140.102493 -53.853168 44.460335 91.683487
[R_front_hand02_01]
9 89.356956 14.367283 -19.491137 142.634140 53.329136 49.315861 92.579636
10 89.356956 14.367283 -19.491137 140.872437 52.278004 47.106758 92.579636
[R_front_hand03_01]
9 87.286232 -22.307278 -0.143439 0.092230 -0.445770 -66.286453 90.091743
10 87.286232 -22.307278 -0.143439 0.074609 -0.448192 -64.587509 90.091743
[R_front_hand01_02]
9 71.020905 0.000060 0.000119 0.002323 -0.000334 106.381714 71.020905
10 71.020905 0.000060 0.000119 0.002323 -0.000334 106.381714 71.020905
[R_front_hand02_02]
9 71.020844 -0.000030 -0.000119 0.002323 -0.000334 106.381714 71.020836
10 71.020844 -0.000030 -0.000119 0.002323 -0.000334 106.381714 71.020836
[R_front_hand03_02]
9 71.020905 0.000000 0.000030 0.002323 -0.000334 106.381714 71.020905
10 71.020905 0.000000 0.000030 0.002323 -0.000334 106.381714 71.020905
[null_rope01_connect]
9 328.732483 0.000000 -0.000238 -23.331316 -46.177406 50.412174 328.732483
10 328.732483 0.000000 -0.000238 -19.325563 -32.615192 40.364185 328.732483
[Rope1_Seg01]
9 0.000038 -0.000173 0.000000 -123.511024 72.575981 66.669189 0.000177
10 0.000038 -0.000190 0.000000 -126.279724 67.017113 63.989120 0.000194
[Rope1_Seg02]
9 139.999863 -0.000179 0.000000 -7.256793 13.249463 -8.050822 139.999863
10 139.999863 -0.000179 0.000000 -9.996096 14.166473 -8.657331 139.999863
[Rope1_Seg03]
9 139.999924 0.000060 -0.000060 -21.742376 16.222919 -7.574427 139.999924
10 139.999924 0.000060 -0.000060 -39.554962 17.684713 -7.718615 139.999924
[Rope1_Seg04]
9 139.999924 -0.000060 -0.000119 -58.941677 16.677126 -1.077823 139.999924
10 139.999924 -0.000060 -0.000119 -69.284706 15.948842 4.404668 139.999924
[Rope1_Seg05]
9 139.999832 0.000119 -0.000060 -27.388596 4.861769 6.857326 139.999832
10 139.999832 0.000119 -0.000060 -7.738616 -1.127911 5.527996 139.999832
[Rope1_Seg06]
9 139.999954 0.000119 -0.000060 -8.841524 0.681984 4.047207 139.999954
10 139.999954 0.000119 -0.000060 1.607014 -2.034130 1.249470 139.999954
[Rope1_Seg07]
9 139.999985 0.000060 0.000000 -6.927624 -0.017901 4.507762 139.999985
10 139.999985 0.000060 0.000000 -1.908325 -1.108050 2.587618 139.999985
[Rope1_Seg09]
9 121.602913 0.000119 -0.000089 -89.793175 -1.359789 0.847147 121.602913
10 121.602913 0.000119 -0.000089 -89.793175 -1.359789 0.847147 121.602913
[L_mid_hand01]
9 103.859421 1.038730 8.195221 110.016693 -43.583382 -14.630747 104.187431
10 103.859421 1.038730 8.195221 109.301483 -41.408253 -13.576799 104.187431
[L_mid_hand02]
9 105.572853 -4.139662 -10.864139 -148.402451 33.171711 -41.059570 106.211075
10 105.572853 -4.139662 -10.864139 -147.153671 31.943630 -38.737034 106.211075
[L_mid_hand03]
9 104.641464 17.579376 -3.913581 -13.575854 13.082141 47.042400 106.179977
10 104.641464 17.579376 -3.913581 -14.087292 12.528420 44.741467 106.179977
[null_rope02_connect]
9 328.732849 0.000179 -0.000119 -161.265213 19.505163 -37.009590 328.732849
10 328.732849 0.000179 -0.000119 -163.371933 7.063798 -41.668941 328.732849
[Rope2_Seg01]
9 0.000091 -0.000038 0.000000 166.594757 -69.858398 -10.871730 0.000099
10 0.000090 -0.000057 0.000000 78.564140 -87.607391 82.456795 0.000107
[Rope2_Seg02]
9 139.999741 -0.000060 -0.000119 -11.773876 -22.263865 -0.642781 139.999756
10 139.999741 -0.000060 -0.000119 -2.880928 -21.923836 7.987666 139.999756
[Rope2_Seg03]
9 140.000107 0.000030 0.000000 -45.811409 -27.149454 -4.023404 140.000107
10 140.000107 0.000030 0.000000 -9.009288 -28.596888 11.212504 140.000107
[Rope2_Seg04]
9 139.999802 0.000000 -0.000060 -42.930229 -8.347436 -14.739962 139.999802
10 139.999802 0.000000 -0.000060 -66.223251 -17.402288 4.294413 139.999802
[Rope2_Seg05]
9 139.999985 -0.000060 0.000119 -13.179757 19.490702 -19.962934 139.999985
10 139.999985 -0.000060 0.000119 -71.668831 -5.038563 -13.943529 139.999985
[Rope2_Seg06]
9 139.999893 -0.000030 -0.000119 -8.187730 29.040646 -22.202061 139.999893
10 139.999893 -0.000030 -0.000119 -10.708799 26.241907 -19.266371 139.999893
[Rope2_Seg07]
9 139.999893 0.000060 -0.000060 -1.087229 14.372867 -10.118174 139.999893
10 139.999893 0.000060 -0.000060 -4.740764 23.891792 -15.056361 139.999893
[Rope2_Seg09]
9 121.338966 0.000089 -0.000060 33.793236 -1.359788 -0.847141 121.338966
10 121.338966 0.000089 -0.000060 33.793236 -1.359788 -0.847141 121.338966
[R_mid_hand01]
9 104.680779 11.144459 -10.335981 -29.481638 39.038574 50.818577 105.778534
10 104.680779 11.144459 -10.335981 -31.399162 37.614391 47.725441 105.778534
[R_mid_hand02]
9 104.070427 2.443552 8.231699 64.792824 -54.379646 21.475639 104.424065
10 104.070427 2.443552 8.231699 66.339699 -51.820030 19.540783 104.424065
[R_mid_hand03]
9 106.028137 -11.221827 -5.996406 -172.901596 14.168235 -60.324333 106.788818
10 106.028137 -11.221827 -5.996406 -172.206848 13.802570 -57.446243 106.788818
[spine02]
9 129.756927 0.001550 0.000119 0.471773 -4.032374 -14.550564 129.756927
10 129.756927 0.001550 0.000119 0.481845 -4.031136 -14.697267 129.756927
[spine03]
9 78.613991 0.081652 -4.898999 1.964851 3.799003 17.492199 78.766525
10 78.613976 0.081654 -4.898999 1.971379 3.796806 17.590845 78.766510
[pelvis]
9 169.435242 0.051022 0.000000 1.838066 -0.561421 11.810722 169.435257
10 169.435242 0.051022 0.000000 2.255344 -0.633078 11.251219 169.435257
[null_rope03_connect]
9 -1.257226 -2.466202 137.391083 -4.958464 -27.350981 79.988373 137.418976
10 -1.257226 -2.466202 137.391083 -5.257349 -12.691829 81.869469 137.418976
[null_rope04_connect]
9 -1.259640 -2.480268 -137.844437 -4.958464 -27.350981 79.988373 137.872513
10 -1.259640 -2.480268 -137.844437 -5.257349 -12.691829 81.869469 137.872513
[Rope3_Seg01]
9 0.000000 0.000000 0.000000 20.723660 -15.185161 -92.361099 0.000000
10 0.000000 0.000000 0.000000 25.663277 -22.729033 -99.794884 0.000000
[Rope3_Seg02]
9 139.999924 -0.000119 0.000060 1.353158 -32.128780 31.463604 139.999924
10 139.999924 -0.000119 0.000060 8.829252 -30.149153 26.416367 139.999924
[Rope3_Seg03]
9 139.999924 -0.000119 0.000119 -5.735204 -27.262514 32.597744 139.999924
10 139.999924 -0.000119 0.000119 0.335830 -24.152206 31.392746 139.999924
[Rope3_Seg04]
9 139.999924 0.000119 0.000000 -1.665619 -7.593816 10.616120 139.999924
10 139.999924 0.000119 0.000000 -0.562881 -6.571914 12.044381 139.999924
[Rope3_Seg05]
9 139.999924 -0.000238 0.000060 -2.840779 -5.106234 13.903656 139.999924
10 139.999924 -0.000238 0.000060 -1.556529 -2.192302 14.630075 139.999924
[Rope3_Seg06]
9 139.999893 -0.000119 -0.000060 -8.521355 -7.115721 21.620152 139.999893
10 139.999893 -0.000119 -0.000060 -6.415557 -2.055490 23.155441 139.999893
[Rope3_Seg07]
9 139.999771 0.000060 -0.000119 -8.031324 -6.785634 12.389887 139.999771
10 139.999771 0.000060 -0.000119 -8.681681 -3.888939 14.627042 139.999771
[Rope3_Seg08]
9 139.999985 -0.000060 0.000000 -4.978114 -4.687620 6.322302 139.999985
10 139.999985 -0.000060 0.000000 -6.473660 -3.397407 7.851245 139.999985
[Rope3_Seg09]
9 90.185997 -0.000179 -0.000060 89.793228 -1.359877 -0.847183 90.185997
10 90.185997 -0.000179 -0.000060 89.793228 -1.359877 -0.847183 90.185997
[R_rear_hand01]
9 103.366196 -6.073594 -10.757982 -169.405167 22.402496 -53.260654 104.101845
10 103.366196 -6.073594 -10.757982 -168.130341 21.777140 -49.871906 104.101845
[R_rear_hand02]
9 100.509819 12.039542 -7.992327 -25.038765 30.595232 50.476662 101.543350
10 100.509819 12.039542 -7.992327 -26.694445 29.195726 47.151855 101.543350
[R_rear_hand03]
9 101.539970 5.215704 5.435467 80.458870 -53.275658 11.535563 101.819031
10 101.539970 5.215704 5.435467 81.113556 -50.109848 10.702383 101.819031
[Rope4_Seg01]
9 0.000007 -0.000173 -0.000153 -109.257591 26.024437 -125.203911 0.000231
10 0.000007 -0.000190 -0.000153 -112.944221 29.582888 -129.132065 0.000244
[Rope4_Seg02]
9 139.999985 0.000060 0.000119 -6.793471 0.468165 13.012339 139.999985
10 139.999985 0.000060 0.000119 -8.916492 -2.464294 13.681466 139.999985
[Rope4_Seg03]
9 139.999924 0.000000 -0.000238 -11.895444 -1.447302 17.293074 139.999924
10 139.999924 0.000000 -0.000238 -14.213023 -6.475937 18.844841 139.999924
[Rope4_Seg04]
9 139.999985 0.000000 0.000119 -12.182257 -6.963943 14.240589 139.999985
10 139.999985 0.000000 0.000119 -12.326591 -12.837073 15.479420 139.999985
[Rope4_Seg05]
9 139.999802 -0.000060 -0.000119 -11.229089 -6.460773 14.172516 139.999802
10 139.999802 -0.000060 -0.000119 -8.753489 -10.220092 14.588547 139.999802
[Rope4_Seg06]
9 139.999924 0.000000 0.000060 -12.730029 -6.068075 17.150719 139.999924
10 139.999924 0.000000 0.000060 -6.288471 -6.588673 13.425649 139.999924
[Rope4_Seg07]
9 139.999802 0.000000 0.000000 -9.082383 -6.531903 12.174189 139.999802
10 139.999802 0.000000 0.000000 -3.231636 -4.746294 7.499215 139.999802
[Rope4_Seg08]
9 139.999924 0.000000 0.000119 -4.975589 -4.118308 4.630071 139.999924
10 139.999924 0.000000 0.000119 -2.926976 -2.910263 3.436814 139.999924
[Rope4_Seg09]
9 90.185791 0.000060 0.000060 -135.617828 2.228885 0.850567 90.185791
10 90.185791 0.000060 0.000060 -135.617828 2.228885 0.850567 90.185791
[L_rear_hand01]
9 101.696655 -8.392275 -7.654577 -31.553307 -23.761135 143.711090 102.329041
10 101.696655 -8.392275 -7.654577 -31.194277 -24.256094 142.819397 102.329041
[L_rear_hand02]
9 102.726799 -1.568258 5.773216 82.664513 39.085827 171.495636 102.900848
10 102.726799 -1.568258 5.773216 82.562164 40.032185 171.334641 102.900848
[L_rear_hand03]
9 104.552910 9.721220 -10.420293 -164.089569 -19.094524 -141.662735 105.519653
10 104.552910 9.721220 -10.420293 -164.408707 -19.357925 -140.691956 105.519653
